<svg id="svg" version="1.1" xmlns="http://www.w3.org/2000/svg" xmlns:xlink="http://www.w3.org/1999/xlink" width="400" height="243.6450839328537" viewBox="0, 0, 400,243.6450839328537"><g id="svgg"><path id="path0" d="M1.146 2.860 C 0.798 3.472,0.871 242.321,1.219 242.559 C 1.655 242.858,5.891 242.661,6.544 242.312 C 6.786 242.182,7.854 242.003,8.916 241.915 C 9.978 241.827,11.533 241.603,12.371 241.417 C 13.209 241.231,15.179 240.960,16.748 240.814 C 18.317 240.668,19.770 240.460,19.977 240.353 C 20.184 240.245,21.231 240.084,22.303 239.994 C 23.376 239.904,25.076 239.674,26.082 239.482 C 27.087 239.291,29.467 239.022,31.371 238.883 C 33.275 238.745,35.085 238.538,35.393 238.423 C 35.701 238.307,37.105 238.133,38.513 238.035 C 39.921 237.937,41.895 237.699,42.901 237.506 C 43.906 237.313,45.935 237.094,47.410 237.019 C 48.885 236.943,50.475 236.781,50.945 236.659 C 51.414 236.536,53.169 236.326,54.845 236.193 C 56.520 236.059,58.934 235.789,60.207 235.592 C 61.481 235.395,63.839 235.125,65.448 234.992 C 69.008 234.698,69.965 234.440,71.061 233.478 L 71.907 232.734 71.907 228.768 C 71.907 223.939,72.165 224.249,68.219 224.321 C 64.742 224.383,63.914 224.116,62.871 222.594 L 62.279 221.730 62.279 213.403 L 62.279 205.077 62.993 204.047 C 63.917 202.714,64.076 202.640,67.569 201.930 C 71.712 201.088,72.159 200.527,72.121 196.222 C 72.065 189.837,72.033 189.821,60.938 190.438 C 59.799 190.501,55.850 190.677,52.163 190.830 C 48.477 190.982,43.979 191.219,42.169 191.356 C 40.360 191.493,36.191 191.706,32.907 191.829 C 29.622 191.953,25.399 192.183,23.522 192.341 C 19.101 192.714,14.247 192.890,13.504 192.703 L 12.919 192.556 12.919 122.418 C 12.919 55.685,12.940 52.268,13.349 52.012 C 13.663 51.816,15.320 51.829,19.504 52.061 C 26.605 52.456,35.166 52.875,38.391 52.987 C 39.732 53.034,42.145 53.200,43.754 53.357 C 45.363 53.513,49.092 53.743,52.041 53.868 C 54.991 53.994,58.446 54.205,59.720 54.339 C 60.993 54.472,64.004 54.588,66.410 54.596 L 70.785 54.610 71.312 53.949 C 71.909 53.200,72.320 47.067,71.880 45.472 C 71.507 44.124,70.042 43.348,67.533 43.169 C 65.101 42.995,64.076 42.488,62.991 40.923 L 62.295 39.918 62.203 33.792 C 62.078 25.439,62.324 22.877,63.348 21.853 L 64.116 21.085 67.707 21.007 C 72.216 20.909,71.907 21.262,71.907 16.211 L 71.907 12.283 71.086 11.488 C 70.158 10.588,69.676 10.479,63.863 9.863 C 61.920 9.657,59.177 9.325,57.770 9.125 C 56.362 8.926,53.894 8.656,52.285 8.525 C 50.676 8.394,48.867 8.183,48.263 8.056 C 47.660 7.929,46.015 7.755,44.607 7.669 C 43.199 7.584,41.713 7.412,41.303 7.288 C 40.894 7.164,38.755 6.905,36.550 6.712 C 34.345 6.520,32.048 6.255,31.444 6.125 C 30.841 5.995,29.250 5.813,27.910 5.722 C 26.569 5.630,24.992 5.453,24.404 5.329 C 23.816 5.204,21.897 4.997,20.138 4.868 C 18.380 4.739,16.173 4.477,15.235 4.285 C 14.296 4.093,12.541 3.867,11.335 3.782 C 10.128 3.697,8.428 3.478,7.556 3.294 C 5.652 2.893,1.295 2.599,1.146 2.860 M392.444 2.929 C 391.438 3.028,390.177 3.227,389.640 3.372 C 389.104 3.516,387.507 3.751,386.092 3.893 C 384.677 4.035,383.141 4.260,382.680 4.393 C 382.218 4.526,380.908 4.698,379.768 4.775 C 378.629 4.852,376.984 5.072,376.112 5.263 C 375.241 5.454,373.486 5.708,372.212 5.828 C 370.938 5.948,368.470 6.222,366.728 6.436 C 360.654 7.183,359.154 7.349,356.490 7.569 C 355.015 7.691,352.821 7.951,351.615 8.146 C 350.408 8.342,348.434 8.562,347.227 8.636 C 346.021 8.710,343.882 8.932,342.474 9.129 C 338.449 9.693,333.513 10.280,331.383 10.449 C 329.958 10.562,329.236 10.744,328.702 11.125 C 327.076 12.286,327.099 12.204,327.172 16.723 L 327.239 20.841 328.804 20.915 C 329.664 20.955,330.661 20.867,331.019 20.718 C 331.498 20.520,331.988 20.522,332.868 20.727 C 334.866 21.192,335.341 21.454,336.058 22.488 L 336.746 23.480 336.746 31.810 L 336.746 40.139 336.071 41.113 C 335.201 42.368,333.772 43.050,331.625 43.234 C 327.683 43.572,326.991 44.495,327.012 49.389 C 327.029 53.451,327.224 54.124,328.532 54.637 C 329.318 54.945,348.721 54.493,349.952 54.137 C 350.378 54.014,353.559 53.843,357.021 53.757 C 360.483 53.670,363.863 53.503,364.534 53.385 C 367.327 52.895,385.327 52.307,385.790 52.692 C 386.048 52.906,386.106 65.849,386.106 122.882 L 386.106 192.809 385.610 193.306 C 385.337 193.579,385.018 193.743,384.901 193.671 C 384.491 193.418,378.814 193.063,370.997 192.802 C 366.660 192.657,362.931 192.443,362.712 192.325 C 362.493 192.208,359.742 192.042,356.599 191.956 C 353.455 191.870,350.335 191.697,349.665 191.573 C 348.995 191.448,345.759 191.235,342.474 191.100 C 325.313 190.394,327.164 189.783,327.082 196.184 L 327.035 199.887 327.714 200.596 C 328.388 201.299,329.871 201.752,332.968 202.202 C 334.296 202.395,335.372 203.078,336.158 204.226 L 336.746 205.084 336.746 213.511 L 336.746 221.938 336.178 222.734 C 335.201 224.104,334.444 224.345,330.652 224.489 L 327.239 224.619 327.173 228.657 C 327.080 234.283,327.373 234.565,333.846 235.099 C 335.870 235.266,338.064 235.522,338.721 235.669 C 339.377 235.815,341.395 236.050,343.205 236.190 C 345.015 236.330,346.880 236.544,347.349 236.665 C 347.818 236.786,349.389 236.957,350.840 237.046 C 352.291 237.135,354.046 237.317,354.740 237.451 C 355.435 237.585,357.154 237.790,358.562 237.907 C 359.970 238.024,362.273 238.290,363.681 238.497 C 365.088 238.705,367.392 238.981,368.800 239.111 C 370.207 239.241,372.346 239.467,373.553 239.613 C 374.759 239.759,377.611 240.097,379.890 240.365 C 384.050 240.854,389.693 241.550,393.784 242.079 C 394.991 242.235,396.417 242.374,396.953 242.388 L 397.928 242.413 398.120 122.888 C 398.266 32.235,398.244 3.281,398.030 3.022 C 397.718 2.647,395.663 2.613,392.444 2.929 M385.826 16.773 C 387.476 17.958,387.569 18.534,387.569 27.676 L 387.569 35.980 386.871 37.080 C 385.739 38.865,384.737 39.162,379.137 39.372 C 371.966 39.642,372.330 40.210,372.345 28.763 C 372.358 18.257,372.189 18.687,376.965 17.011 C 379.670 16.062,384.650 15.928,385.826 16.773 M22.547 16.943 C 24.655 17.380,25.076 17.644,26.052 19.135 L 26.691 20.110 26.691 28.519 L 26.691 36.929 26.081 38.018 C 24.744 40.406,14.427 39.800,12.335 37.210 L 11.578 36.273 11.578 27.338 L 11.578 18.403 12.176 17.550 C 12.505 17.081,12.889 16.608,13.029 16.498 C 13.443 16.176,20.426 16.502,22.547 16.943 M46.664 19.037 C 51.844 19.976,52.711 21.841,52.594 31.792 C 52.479 41.503,52.140 42.059,46.702 41.453 C 45.426 41.311,43.607 41.194,42.658 41.194 C 40.326 41.194,38.880 40.476,38.026 38.891 L 37.416 37.761 37.416 29.417 L 37.416 21.073 38.076 20.231 C 39.179 18.821,42.741 18.326,46.664 19.037 M359.653 19.044 C 360.072 19.195,360.683 19.716,361.011 20.202 L 361.609 21.085 361.609 29.866 C 361.609 38.523,361.601 38.657,361.077 39.323 C 360.174 40.471,358.890 41.195,357.759 41.193 C 357.195 41.193,355.082 41.321,353.062 41.479 C 346.531 41.989,346.517 41.966,346.444 31.079 L 346.392 23.278 347.054 21.938 C 348.037 19.945,348.994 19.501,352.915 19.220 C 354.613 19.098,356.112 18.955,356.246 18.903 C 356.777 18.695,358.936 18.784,359.653 19.044 M77.388 81.200 C 71.928 82.935,71.235 90.018,76.269 92.641 C 77.890 93.486,81.131 93.443,82.644 92.556 C 89.430 88.579,84.909 78.810,77.388 81.200 M114.077 101.664 C 113.071 101.761,111.841 102.016,111.342 102.230 C 110.844 102.445,110.264 102.620,110.053 102.620 C 109.696 102.620,107.267 103.734,106.155 104.407 C 100.486 107.839,97.147 113.067,96.009 120.293 C 95.690 122.315,95.869 128.252,96.280 129.311 C 96.436 129.714,96.674 130.641,96.810 131.372 C 97.312 134.073,99.328 137.598,101.767 140.037 C 103.842 142.112,104.763 142.706,108.592 144.439 C 108.995 144.621,109.762 144.838,110.299 144.920 C 110.835 145.003,112.005 145.240,112.900 145.446 C 116.781 146.342,123.859 145.073,127.045 142.910 C 129.529 141.224,130.137 140.699,131.276 139.257 C 131.938 138.419,132.672 137.494,132.907 137.202 C 133.662 136.263,133.552 135.432,132.534 134.369 C 131.525 133.316,131.267 133.362,129.566 134.907 C 124.905 139.143,117.143 139.911,112.736 136.573 C 112.334 136.268,111.751 135.826,111.440 135.590 C 109.144 133.847,105.924 124.907,107.282 124.047 C 107.466 123.930,113.321 123.831,120.293 123.827 C 127.264 123.823,133.093 123.739,133.245 123.640 C 134.076 123.105,134.365 117.778,133.699 115.296 C 133.501 114.558,133.338 113.702,133.336 113.393 C 133.334 112.900,132.721 111.246,132.144 110.177 C 130.061 106.314,127.175 103.830,123.096 102.391 C 120.829 101.591,117.565 101.328,114.077 101.664 M81.901 101.964 C 81.566 102.137,80.140 102.648,78.732 103.098 C 77.325 103.548,76.049 104.012,75.897 104.128 C 75.744 104.244,75.086 104.489,74.434 104.671 C 72.922 105.094,71.800 105.496,70.540 106.067 C 69.989 106.316,69.325 106.520,69.065 106.520 C 68.264 106.520,68.007 107.033,68.007 108.636 C 68.007 110.386,67.701 110.193,71.227 110.669 C 72.394 110.826,73.452 111.082,73.577 111.236 C 74.189 111.991,74.376 116.214,74.301 127.536 C 74.212 140.845,74.432 139.741,71.785 140.160 C 68.806 140.631,67.436 142.485,68.884 144.084 C 69.541 144.811,89.547 144.802,89.937 144.075 C 90.988 142.110,89.541 140.158,87.031 140.158 C 85.148 140.158,85.111 140.087,84.950 136.086 C 84.764 131.481,84.766 114.630,84.953 108.592 C 85.164 101.781,84.604 100.564,81.901 101.964 M219.622 102.108 C 219.019 102.353,217.867 102.795,217.063 103.090 C 216.258 103.384,215.271 103.778,214.869 103.966 C 214.125 104.312,211.904 105.109,210.361 105.583 C 209.892 105.727,209.292 105.997,209.027 106.183 C 208.762 106.368,208.292 106.520,207.984 106.520 C 207.307 106.520,206.947 107.313,206.947 108.803 C 206.947 110.096,207.267 110.420,208.539 110.420 C 210.098 110.420,212.398 110.931,212.736 111.353 C 213.080 111.782,213.189 139.061,212.848 139.597 C 212.746 139.757,211.920 140.006,211.013 140.151 C 210.105 140.296,208.928 140.589,208.398 140.801 L 207.434 141.186 207.434 142.628 C 207.434 144.646,206.997 144.573,218.692 144.493 C 229.908 144.416,229.179 144.556,229.070 142.486 C 228.994 141.047,228.278 140.481,226.227 140.238 C 223.750 139.944,223.802 140.278,223.781 124.595 L 223.766 113.297 224.558 112.556 C 227.633 109.678,232.379 108.128,235.222 109.072 C 239.139 110.373,239.353 111.324,239.361 127.406 C 239.367 139.810,239.366 139.818,237.976 140.028 C 234.067 140.618,232.780 141.917,234.103 143.937 L 234.502 144.546 244.604 144.546 C 256.032 144.546,255.214 144.700,255.207 142.551 C 255.201 141.057,253.913 140.158,251.774 140.158 C 249.833 140.158,249.889 140.570,249.828 125.989 L 249.774 113.225 250.453 112.537 C 253.247 109.701,258.120 108.162,261.321 109.104 C 264.929 110.165,265.487 112.239,265.473 124.558 C 265.457 138.482,265.314 139.801,263.800 140.034 C 262.424 140.245,260.364 140.879,260.202 141.142 C 259.914 141.607,259.837 143.283,260.074 143.906 L 260.317 144.546 270.430 144.546 C 281.871 144.546,281.052 144.700,281.044 142.551 C 281.039 140.999,280.290 140.508,277.194 140.029 C 275.663 139.793,275.685 139.987,275.686 126.919 C 275.687 110.052,275.285 107.602,271.987 104.395 C 268.691 101.190,259.603 100.524,256.185 103.237 C 255.984 103.397,255.271 103.843,254.601 104.227 C 253.931 104.612,252.586 105.687,251.612 106.617 C 248.823 109.279,249.040 109.235,248.101 107.329 C 244.298 99.603,232.824 99.551,225.330 107.225 C 223.685 108.910,223.565 108.809,223.224 105.441 C 222.841 101.650,222.201 101.058,219.622 102.108 M299.939 102.026 C 299.269 102.217,298.227 102.476,297.623 102.602 C 296.445 102.848,293.041 104.534,292.303 105.238 C 292.056 105.474,291.610 105.832,291.312 106.033 C 290.602 106.512,288.966 108.682,288.735 109.451 C 288.635 109.783,288.395 110.307,288.201 110.614 C 285.960 114.164,290.538 118.370,294.442 116.349 C 296.687 115.187,297.789 112.944,298.465 108.161 C 298.763 106.057,299.241 105.766,302.414 105.759 C 304.422 105.754,305.328 105.853,305.876 106.137 C 306.284 106.348,306.767 106.520,306.948 106.520 C 308.460 106.520,309.697 109.446,310.063 113.890 C 310.394 117.909,310.239 118.566,308.894 118.832 C 308.087 118.992,305.861 119.642,302.742 120.627 C 298.871 121.851,298.609 121.947,296.161 123.060 C 295.558 123.334,294.781 123.664,294.435 123.793 C 291.101 125.036,287.271 129.002,286.681 131.822 C 285.400 137.944,288.448 143.698,293.671 145.020 C 294.169 145.146,295.015 145.363,295.551 145.501 C 297.534 146.013,301.849 145.477,303.473 144.517 C 303.675 144.398,304.064 144.203,304.339 144.082 C 305.236 143.690,306.976 142.386,308.592 140.894 C 310.394 139.231,310.469 139.202,310.787 140.040 C 311.650 142.309,313.979 144.442,316.196 144.993 C 318.474 145.559,323.044 145.208,323.968 144.397 C 324.180 144.211,324.465 144.059,324.603 144.059 C 324.817 144.059,326.572 142.262,327.544 141.047 C 328.816 139.459,326.657 138.144,324.885 139.427 C 323.252 140.610,321.873 140.366,321.054 138.749 C 320.627 137.905,320.588 136.960,320.482 125.046 C 320.387 114.404,320.307 112.105,320.003 111.395 C 319.802 110.926,319.557 110.110,319.458 109.581 C 318.855 106.362,316.010 103.530,312.098 102.253 C 309.841 101.516,302.226 101.374,299.939 102.026 M324.193 102.350 C 323.625 102.507,323.578 102.637,323.512 104.262 C 323.425 106.378,323.444 106.393,326.508 106.607 C 329.798 106.836,330.368 107.057,331.178 108.416 C 331.556 109.049,331.976 109.751,332.111 109.976 C 332.247 110.201,332.797 111.121,333.333 112.020 C 333.870 112.919,334.548 114.051,334.840 114.536 C 335.132 115.021,335.544 115.746,335.753 116.149 C 335.963 116.551,336.624 117.648,337.221 118.586 C 337.818 119.525,338.477 120.622,338.684 121.024 C 338.891 121.426,339.280 122.084,339.549 122.486 C 339.818 122.888,340.206 123.547,340.412 123.949 C 340.618 124.351,341.109 125.174,341.503 125.777 C 341.898 126.380,342.335 127.093,342.475 127.361 C 342.615 127.629,342.997 128.288,343.324 128.824 C 343.652 129.360,344.089 130.128,344.297 130.530 C 344.505 130.932,344.806 131.447,344.966 131.673 C 345.294 132.138,344.787 133.293,343.377 135.295 C 342.947 135.905,342.486 136.574,342.352 136.782 C 342.218 136.990,341.782 137.643,341.382 138.233 C 340.983 138.823,340.544 139.488,340.407 139.710 C 340.270 139.933,339.802 140.624,339.366 141.246 C 338.931 141.868,338.574 142.445,338.574 142.528 C 338.574 142.611,338.392 142.881,338.169 143.127 C 337.946 143.373,337.645 143.798,337.499 144.072 C 337.353 144.345,335.753 146.796,333.943 149.518 L 330.652 154.466 327.727 154.886 C 326.118 155.117,324.473 155.385,324.071 155.481 L 323.339 155.655 323.339 157.474 L 323.339 159.293 332.724 159.293 L 342.108 159.293 342.181 157.611 C 342.272 155.521,342.309 155.553,339.530 155.243 C 336.215 154.873,336.014 154.566,337.599 152.283 C 338.135 151.510,338.574 150.797,338.574 150.698 C 338.575 150.599,339.013 149.886,339.549 149.114 C 340.085 148.342,340.524 147.659,340.524 147.598 C 340.524 147.537,340.946 146.852,341.463 146.077 C 341.979 145.302,342.816 144.010,343.322 143.205 C 343.829 142.401,344.504 141.353,344.821 140.877 C 345.139 140.400,345.399 139.896,345.399 139.757 C 345.399 139.617,345.619 139.304,345.887 139.062 C 346.155 138.819,346.374 138.515,346.374 138.386 C 346.374 138.257,346.684 137.798,347.063 137.367 L 347.751 136.583 348.827 138.188 C 349.865 139.735,350.276 140.420,351.108 141.987 C 351.322 142.389,351.764 143.157,352.092 143.693 C 352.419 144.229,352.791 144.892,352.918 145.165 C 353.045 145.439,353.324 145.809,353.540 145.987 C 353.755 146.166,353.931 146.421,353.931 146.555 C 353.931 146.689,354.342 147.470,354.845 148.292 C 355.347 149.113,355.893 150.005,356.057 150.273 C 356.221 150.542,356.521 151.111,356.723 151.537 C 356.926 151.964,357.196 152.377,357.324 152.456 C 357.452 152.535,357.716 152.920,357.911 153.312 C 358.453 154.397,357.912 154.716,354.783 155.155 C 351.578 155.605,351.493 155.665,351.493 157.486 C 351.493 159.527,350.721 159.415,364.835 159.415 C 378.836 159.415,377.818 159.580,377.818 157.309 C 377.818 155.489,377.964 155.599,375.115 155.267 C 371.958 154.900,370.613 154.440,370.277 153.613 C 370.130 153.251,369.518 152.188,368.916 151.249 C 368.315 150.311,367.655 149.214,367.450 148.812 C 367.246 148.410,366.593 147.313,366.000 146.374 C 365.408 145.436,364.752 144.339,364.544 143.937 C 364.335 143.534,363.919 142.797,363.618 142.298 C 361.854 139.370,360.101 136.391,359.806 135.820 C 359.619 135.458,359.111 134.613,358.678 133.943 C 358.245 133.272,357.264 131.628,356.497 130.288 L 355.103 127.851 355.546 126.997 C 355.790 126.527,356.192 125.868,356.439 125.533 C 357.168 124.547,360.512 119.393,360.512 119.256 C 360.512 119.187,361.540 117.582,362.797 115.690 C 364.053 113.797,365.261 111.920,365.481 111.517 C 365.905 110.743,367.231 108.777,368.049 107.711 C 368.542 107.069,371.148 106.520,373.705 106.520 C 375.416 106.520,376.348 103.870,375.061 102.665 C 374.214 101.872,357.530 101.905,356.973 102.701 C 355.853 104.299,356.669 106.513,358.388 106.542 C 361.647 106.597,363.201 107.310,362.082 108.239 C 361.889 108.399,361.731 108.642,361.731 108.780 C 361.731 108.917,361.321 109.644,360.820 110.395 C 360.319 111.146,359.743 112.058,359.540 112.422 C 358.695 113.934,357.486 115.913,357.338 116.027 C 357.251 116.094,356.750 116.900,356.225 117.818 C 355.700 118.735,355.082 119.777,354.851 120.133 C 354.621 120.489,354.221 121.164,353.963 121.633 C 352.992 123.403,352.594 123.533,351.850 122.326 C 351.491 121.744,350.960 120.884,350.669 120.414 C 350.378 119.945,350.011 119.342,349.854 119.074 C 349.696 118.806,348.931 117.503,348.154 116.179 C 347.376 114.855,346.520 113.409,346.252 112.966 C 342.518 106.799,342.509 106.918,346.740 106.576 L 348.934 106.399 349.008 104.822 C 349.048 103.954,349.020 103.000,348.945 102.701 L 348.808 102.157 336.805 102.169 C 330.203 102.176,324.528 102.257,324.193 102.350 M20.850 102.949 C 20.469 103.228,20.422 103.495,20.544 104.681 C 20.722 106.400,20.567 106.259,22.715 106.663 C 24.560 107.009,25.838 107.914,25.838 108.874 C 25.838 109.269,26.440 110.705,27.323 112.419 C 27.579 112.915,27.788 113.451,27.788 113.611 C 27.788 113.771,28.021 114.407,28.306 115.025 C 29.568 117.764,29.738 118.169,29.738 118.443 C 29.738 118.603,29.947 119.139,30.203 119.635 C 31.016 121.212,31.688 122.774,31.688 123.085 C 31.688 123.250,31.845 123.677,32.037 124.033 C 32.561 125.003,33.638 127.427,33.638 127.635 C 33.638 127.735,33.857 128.290,34.126 128.869 C 34.394 129.447,34.832 130.394,35.101 130.973 C 35.369 131.551,35.588 132.165,35.588 132.337 C 35.588 132.508,35.749 132.940,35.946 133.296 C 36.143 133.652,36.587 134.656,36.933 135.527 C 37.668 137.376,38.151 138.470,38.786 139.719 C 39.038 140.215,39.244 140.765,39.244 140.942 C 39.244 141.118,39.464 141.672,39.732 142.172 C 40.000 142.672,40.219 143.239,40.219 143.431 C 40.219 144.316,41.418 144.790,43.661 144.790 L 45.818 144.790 46.431 143.579 C 46.768 142.913,47.044 142.200,47.044 141.994 C 47.044 141.788,47.264 141.210,47.532 140.710 C 47.800 140.209,48.020 139.661,48.020 139.491 C 48.020 139.321,48.239 138.772,48.507 138.272 C 48.775 137.772,48.995 137.169,48.995 136.931 C 48.995 136.694,49.214 136.091,49.482 135.591 C 49.750 135.091,49.970 134.542,49.970 134.372 C 49.970 134.202,50.189 133.654,50.457 133.153 C 50.725 132.653,50.945 132.050,50.945 131.813 C 50.945 131.576,51.164 130.972,51.432 130.472 C 51.700 129.972,51.920 129.375,51.920 129.147 C 51.920 128.918,52.026 128.665,52.157 128.584 C 52.287 128.504,52.514 127.976,52.662 127.412 C 52.809 126.848,53.141 125.940,53.399 125.395 C 53.658 124.850,53.870 124.226,53.870 124.008 C 53.870 123.790,53.976 123.546,54.107 123.465 C 54.237 123.385,54.462 122.857,54.606 122.293 C 54.750 121.729,55.016 120.938,55.197 120.536 C 55.588 119.666,56.365 117.704,56.789 116.514 C 57.526 114.445,58.831 110.968,59.122 110.299 C 59.297 109.896,59.568 109.219,59.724 108.793 C 60.111 107.737,60.570 107.400,62.279 106.917 C 63.083 106.689,64.016 106.423,64.351 106.324 C 65.067 106.114,65.429 103.234,64.790 102.829 C 64.428 102.599,49.725 102.542,49.136 102.768 C 48.042 103.188,48.780 106.520,49.967 106.520 C 50.314 106.520,51.197 106.671,51.929 106.856 C 52.661 107.040,53.562 107.262,53.931 107.348 C 54.636 107.513,54.913 108.792,54.362 109.343 C 54.099 109.606,53.245 111.955,52.870 113.445 C 52.739 113.970,52.405 114.957,52.130 115.639 C 51.275 117.755,51.007 118.507,50.212 121.023 C 49.789 122.363,49.356 123.569,49.250 123.704 C 49.145 123.839,48.979 124.388,48.882 124.924 C 48.785 125.460,48.568 126.173,48.399 126.508 C 48.006 127.290,47.321 129.263,46.983 130.591 C 46.837 131.161,46.637 131.627,46.538 131.627 C 46.186 131.627,45.094 130.120,45.094 129.635 C 45.094 129.364,44.943 128.852,44.758 128.496 C 44.281 127.580,43.146 124.607,43.136 124.249 C 43.132 124.084,42.916 123.510,42.657 122.974 C 42.398 122.438,42.182 121.861,42.178 121.693 C 42.173 121.525,41.950 120.978,41.682 120.478 C 41.414 119.978,41.194 119.423,41.194 119.244 C 41.194 119.066,40.985 118.406,40.729 117.778 C 40.474 117.150,40.041 116.033,39.769 115.296 C 39.496 114.558,38.893 112.968,38.429 111.761 C 37.061 108.200,37.032 108.072,37.497 107.679 C 38.029 107.230,39.497 106.822,41.316 106.618 C 42.121 106.528,42.916 106.346,43.083 106.214 C 43.477 105.903,43.486 103.304,43.096 102.913 C 42.644 102.461,21.470 102.496,20.850 102.949 M137.162 102.790 C 136.788 102.888,136.735 103.134,136.796 104.504 C 136.878 106.340,136.929 106.389,139.052 106.684 C 140.593 106.898,141.836 108.071,141.857 109.330 C 141.861 109.602,142.014 110.041,142.197 110.305 C 142.380 110.570,142.701 111.335,142.910 112.005 C 143.430 113.675,144.011 115.268,144.435 116.186 C 144.630 116.608,144.790 117.103,144.790 117.286 C 144.790 117.469,145.009 118.028,145.277 118.528 C 145.545 119.028,145.765 119.632,145.765 119.869 C 145.765 120.106,145.984 120.709,146.252 121.209 C 146.520 121.710,146.740 122.281,146.740 122.479 C 146.740 122.677,146.945 123.308,147.197 123.881 C 147.448 124.455,147.777 125.280,147.928 125.716 C 148.635 127.758,148.787 128.158,149.211 129.094 C 149.461 129.645,149.665 130.306,149.665 130.564 C 149.665 130.821,149.814 131.247,149.997 131.512 C 150.180 131.776,150.499 132.541,150.705 133.211 C 150.912 133.882,151.300 134.979,151.569 135.649 C 152.059 136.873,152.268 137.439,153.143 139.915 C 153.404 140.652,153.761 141.584,153.938 141.987 C 154.115 142.389,154.383 143.119,154.533 143.610 C 154.870 144.708,155.074 144.790,157.467 144.790 C 159.603 144.790,159.994 144.578,160.279 143.269 C 160.374 142.832,160.603 142.258,160.787 141.993 C 160.971 141.729,161.125 141.345,161.130 141.140 C 161.134 140.935,161.350 140.329,161.609 139.793 C 161.868 139.257,162.083 138.625,162.088 138.390 C 162.093 138.155,162.316 137.554,162.584 137.053 C 162.852 136.553,163.075 135.978,163.080 135.774 C 163.084 135.571,163.300 134.966,163.559 134.430 C 163.818 133.894,164.033 133.259,164.038 133.019 C 164.043 132.779,164.266 132.153,164.534 131.627 C 164.802 131.101,165.021 130.502,165.021 130.295 C 165.021 130.088,165.241 129.510,165.509 129.009 C 165.777 128.509,165.996 127.896,165.996 127.646 C 165.996 127.397,166.159 126.902,166.359 126.546 C 166.771 125.810,167.354 124.232,167.825 122.579 C 168.002 121.960,168.265 121.247,168.410 120.995 C 168.722 120.453,169.326 118.764,169.735 117.292 C 169.895 116.714,170.134 116.230,170.266 116.216 C 170.687 116.171,171.975 119.208,172.603 121.726 C 172.732 122.246,172.968 122.904,173.128 123.188 C 173.287 123.472,173.546 124.144,173.703 124.680 C 173.859 125.216,174.280 126.423,174.637 127.361 C 174.994 128.300,175.395 129.452,175.529 129.921 C 175.663 130.390,175.918 131.103,176.096 131.505 C 176.274 131.907,176.652 132.760,176.936 133.401 C 177.220 134.041,177.453 134.703,177.453 134.873 C 177.453 135.042,177.847 136.108,178.329 137.243 C 178.810 138.377,179.286 139.634,179.387 140.037 C 179.487 140.439,179.751 141.119,179.974 141.548 C 180.196 141.977,180.378 142.544,180.378 142.809 C 180.378 144.169,181.503 144.813,183.746 144.738 C 186.115 144.659,186.380 144.435,187.084 141.927 C 187.263 141.289,187.699 140.000,188.053 139.062 C 188.406 138.123,188.800 136.940,188.927 136.433 C 189.055 135.926,189.266 135.322,189.396 135.092 C 189.695 134.563,190.563 132.051,190.884 130.784 C 191.018 130.253,191.227 129.700,191.347 129.555 C 191.467 129.411,191.674 128.858,191.808 128.327 C 191.942 127.796,192.392 126.429,192.809 125.289 C 193.226 124.150,193.667 122.826,193.789 122.348 C 193.911 121.870,194.178 121.157,194.383 120.764 C 194.588 120.371,194.757 119.856,194.758 119.621 C 194.759 119.386,194.979 118.785,195.247 118.284 C 195.515 117.784,195.738 117.154,195.743 116.884 C 195.747 116.613,195.963 115.954,196.222 115.417 C 196.481 114.881,196.697 114.278,196.703 114.077 C 196.708 113.876,196.880 113.389,197.085 112.996 C 197.290 112.602,197.558 111.889,197.680 111.411 C 198.604 107.789,199.346 106.922,201.780 106.628 C 203.622 106.405,203.778 106.243,203.778 104.549 C 203.778 102.563,204.018 102.620,195.677 102.620 C 187.572 102.620,187.934 102.528,187.934 104.589 C 187.934 106.281,188.092 106.425,190.184 106.646 C 191.775 106.815,193.430 107.453,193.408 107.890 C 193.386 108.302,192.541 111.036,192.189 111.830 C 191.994 112.271,191.831 112.819,191.826 113.049 C 191.821 113.279,191.606 113.906,191.347 114.442 C 191.088 114.979,190.872 115.716,190.868 116.081 C 190.863 116.446,190.651 117.214,190.397 117.788 C 190.142 118.361,189.700 119.653,189.413 120.658 C 189.126 121.664,188.773 122.815,188.629 123.218 C 188.485 123.620,188.220 124.442,188.040 125.046 C 187.860 125.649,187.548 126.581,187.347 127.118 C 187.145 127.654,186.976 128.344,186.970 128.652 C 186.959 129.200,185.830 130.579,185.588 130.337 C 185.521 130.270,185.315 129.683,185.130 129.032 C 184.945 128.381,184.505 127.081,184.152 126.143 C 183.799 125.204,183.359 123.899,183.175 123.242 C 182.991 122.585,182.725 121.933,182.584 121.792 C 182.443 121.651,182.328 121.333,182.328 121.085 C 182.328 120.837,182.154 120.297,181.941 119.886 C 181.728 119.474,181.410 118.629,181.235 118.009 C 181.059 117.388,180.624 116.112,180.266 115.174 C 179.909 114.235,179.517 113.138,179.396 112.736 C 178.893 111.065,178.044 108.736,177.876 108.569 C 177.007 107.700,178.392 106.862,181.114 106.609 C 183.081 106.426,183.303 106.186,183.303 104.238 C 183.303 102.552,183.737 102.620,173.065 102.620 C 162.263 102.620,162.828 102.519,162.828 104.451 C 162.828 106.163,163.113 106.433,165.131 106.626 C 167.529 106.855,169.156 107.752,168.222 108.329 C 168.106 108.401,167.941 108.892,167.857 109.420 C 167.772 109.948,167.549 110.690,167.360 111.070 C 166.840 112.118,165.996 114.410,165.996 114.776 C 165.996 114.954,165.838 115.446,165.644 115.868 C 165.255 116.713,164.411 119.080,164.021 120.414 C 163.884 120.884,163.614 121.613,163.421 122.036 C 163.229 122.458,163.071 122.929,163.071 123.081 C 163.071 123.234,162.852 123.789,162.584 124.314 C 162.316 124.840,162.096 125.523,162.096 125.832 C 162.096 126.141,161.877 126.803,161.609 127.303 C 161.341 127.803,161.121 128.431,161.121 128.697 C 161.121 128.964,160.800 129.540,160.408 129.978 L 159.695 130.774 159.433 130.088 C 159.289 129.710,159.171 129.214,159.171 128.984 C 159.171 128.755,159.021 128.350,158.837 128.086 C 158.653 127.821,158.428 127.221,158.336 126.752 C 158.245 126.283,158.021 125.515,157.839 125.046 C 157.656 124.576,157.209 123.205,156.845 121.999 C 156.480 120.792,156.040 119.421,155.866 118.952 C 155.693 118.483,155.323 117.386,155.045 116.514 C 154.766 115.643,154.147 113.778,153.670 112.371 C 151.855 107.022,152.087 106.535,156.462 106.517 C 157.772 106.511,158.017 106.244,158.147 104.675 C 158.327 102.504,158.915 102.616,147.485 102.649 C 142.048 102.664,137.402 102.728,137.162 102.790 M119.226 106.375 C 122.312 107.756,123.705 110.272,123.705 114.467 C 123.705 119.395,123.005 119.748,113.467 119.634 L 107.374 119.561 107.430 117.508 C 107.466 116.215,107.669 114.930,107.978 114.034 C 108.249 113.252,108.470 112.407,108.470 112.156 C 108.470 111.904,108.631 111.566,108.827 111.403 C 109.023 111.241,109.257 110.873,109.348 110.586 C 109.765 109.272,112.321 106.623,113.401 106.386 C 113.770 106.305,114.134 106.138,114.210 106.014 C 114.513 105.524,117.863 105.765,119.226 106.375 M309.927 122.515 C 310.274 122.862,310.313 123.670,310.249 129.236 L 310.177 135.563 309.324 136.276 C 303.228 141.374,296.537 139.638,296.573 132.968 C 296.596 128.675,299.276 125.922,305.916 123.369 C 306.656 123.085,307.424 122.848,307.622 122.843 C 307.821 122.839,308.257 122.678,308.592 122.486 C 309.373 122.040,309.453 122.042,309.927 122.515 M50.976 204.083 C 52.552 205.247,52.651 205.841,52.651 214.122 C 52.651 225.093,52.620 225.148,46.120 225.940 C 40.047 226.679,39.940 226.671,38.560 225.367 L 37.416 224.286 37.416 215.537 L 37.416 206.787 38.103 205.887 C 39.149 204.515,39.651 204.301,42.669 203.938 C 47.327 203.377,50.085 203.425,50.976 204.083 M356.856 204.011 C 359.620 204.366,359.636 204.373,360.691 205.660 L 361.609 206.780 361.682 215.193 C 361.762 224.424,361.754 224.486,360.324 225.741 L 359.465 226.496 355.540 226.395 C 350.942 226.277,349.971 225.994,348.410 224.318 C 346.513 222.281,346.374 221.551,346.374 213.619 C 346.374 202.998,346.695 202.704,356.856 204.011 M25.014 205.990 C 26.638 206.994,26.692 207.330,26.686 216.453 C 26.681 226.151,26.549 226.661,23.837 227.425 C 23.340 227.565,22.871 227.780,22.796 227.902 C 22.720 228.025,22.139 228.199,21.506 228.288 C 20.872 228.378,19.695 228.602,18.891 228.786 C 15.433 229.578,13.178 228.955,12.127 226.915 L 11.456 225.615 11.456 217.557 C 11.456 206.821,11.572 206.563,16.558 206.175 C 18.038 206.060,19.662 205.869,20.167 205.750 C 21.938 205.332,24.126 205.441,25.014 205.990 M378.940 205.722 C 379.329 205.852,380.870 206.061,382.365 206.185 C 385.455 206.441,386.119 206.764,387.109 208.492 L 387.690 209.506 387.690 218.056 L 387.690 226.605 387.098 227.469 C 386.141 228.867,385.213 229.231,383.124 229.030 C 371.661 227.928,372.334 228.712,372.334 216.462 C 372.334 207.001,372.349 206.914,374.106 205.986 C 375.116 205.453,377.715 205.311,378.940 205.722 " stroke="none" fill="#000000" fill-rule="evenodd"></path></g></svg>